<?xml version="1.0" encoding="utf-8"?>
<svg xmlns="http://www.w3.org/2000/svg" viewBox="126.2173 2362.3683 55.5601 18.4293" width="50px" height="16.544px">
  <g transform="matrix(1, 0, 0, -1, 136.36425781250003, 2370.526641845703)">
    <path d="M 0 0 L 3.234 -3.252 L -3.679 -10.26 L -10.147 -10.271 Z" style="fill: rgb(46, 48, 146); fill-opacity: 1;"/>
  </g>
  <g transform="matrix(1, 0, 0, -1, 164.33735656738284, 2373.413330078125)">
    <path d="M 0 0 L 10.942 11.045 L 17.44 11.038 L 3.249 -3.275 Z" style="fill: rgb(46, 48, 146); fill-opacity: 1;"/>
  </g>
  <g transform="matrix(1, 0, 0, -1, 160.8802642822266, 2377.884033203125)">
    <path d="M 0 0 L -0.015 -0.015 L -7.99 8.014 L -4.785 11.255 L 3.278 3.146 L 3.324 3.072 L 5.937 0.418 L 2.762 -2.799 Z" style="fill: rgb(39, 170, 225); fill-opacity: 1;"/>
  </g>
  <g transform="matrix(1, 0, 0, -1, 137.48526000976565, 2377.434844970703)">
    <path d="M 0 0 L 14.771 14.938 L 18.005 11.676 L 3.222 -3.256 Z" style="fill: rgb(46, 48, 146); fill-opacity: 1;"/>
  </g>
</svg>