<?xml version="1.0" encoding="utf-8"?>
<svg xmlns="http://www.w3.org/2000/svg" viewBox="164.7222 1416.6517 123.3397 49.342" width="123.34px" height="49.342px">
  <defs>
    <clipPath id="clippath44" transform="">
      <path d="M 0 0 L 841.89 0 L 841.89 595.276 L 0 595.276 Z" style="fill: none; clip-rule: nonzero;"/>
    </clipPath>
    <clipPath id="clippath45" transform="">
      <path d="M 0 0 L 841.89 0 L 841.89 595.276 L 0 595.276 Z" style="fill: none; clip-rule: nonzero;"/>
    </clipPath>
    <clipPath id="clippath46" transform="">
      <path d="M 0 0 L 841.89 0 L 841.89 595.276 L 0 595.276 Z" style="fill: none; clip-rule: nonzero;"/>
    </clipPath>
  </defs>
  <g transform="matrix(1, 0, 0, -1, 242.64782714843747, 1424.8099365234375)">
    <path d="M 0 0 L 3.235 -3.252 L -3.678 -10.261 L -10.146 -10.272 Z" style="fill: rgb(0, 0, 0); fill-opacity: 1;"/>
  </g>
  <g transform="matrix(1, 0, 0, -1, 270.6219177246094, 1427.6966552734375)">
    <path d="M 0 0 L 10.941 11.045 L 17.44 11.036 L 3.249 -3.277 Z" style="fill: rgb(0, 0, 0); fill-opacity: 1;"/>
  </g>
  <g transform="matrix(1, 0, 0, -1, 267.1644287109375, 1432.1693115234375)">
    <path d="M 0 0 L -0.015 -0.014 L -7.99 8.014 L -4.785 11.255 L 3.277 3.147 L 3.323 3.072 L 5.938 0.418 L 2.762 -2.797 Z" style="fill: rgb(147, 149, 152); fill-opacity: 1;"/>
  </g>
  <g transform="matrix(1, 0, 0, -1, 243.7694396972656, 1431.7200927734375)">
    <path d="M 0 0 L 14.771 14.939 L 18.005 11.678 L 3.223 -3.255 Z" style="fill: rgb(0, 0, 0); fill-opacity: 1;"/>
  </g>
  <g style="clip-path: url(&quot;#clippath44&quot;);" transform="matrix(1, 0, 0, -1, 58.59772872924805, 1778.1898193359375)">
    <g transform="translate(111.6815 330.0615)">
      <path d="M 0 0 C 0.651 0 1.184 0.168 1.568 0.496 C 1.954 0.824 2.148 1.27 2.148 1.805 C 2.148 3.035 1.421 3.652 -0.03 3.652 L -1.764 3.652 L -1.764 0 Z M -5.557 6.857 L 0.266 6.857 C 2.001 6.857 3.38 6.424 4.387 5.562 C 5.394 4.698 5.913 3.525 5.913 2.018 C 5.913 0.422 5.364 -0.811 4.312 -1.665 C 3.245 -2.535 1.821 -2.949 0.073 -2.949 L -1.764 -2.949 L -1.764 -6.916 L -5.557 -6.916 Z" style="fill: rgb(0, 0, 0); fill-opacity: 1;"/>
    </g>
  </g>
  <g style="clip-path: url(&quot;#clippath44&quot;);" transform="matrix(1, 0, 0, -1, 58.59772872924805, 1778.1898193359375)">
    <g transform="translate(126.2621 330.3027)">
      <path d="M 0 0 C 0.654 0 1.143 0.151 1.498 0.435 C 1.839 0.724 2.017 1.13 2.017 1.636 C 2.017 2.187 1.839 2.603 1.483 2.886 C 1.128 3.165 0.624 3.313 -0.014 3.313 L -2.503 3.313 L -2.503 0 Z M -6.253 6.616 L 0.163 6.616 C 1.171 6.616 2.046 6.486 2.801 6.225 C 3.53 5.973 4.208 5.528 4.847 4.882 C 5.485 4.251 5.795 3.263 5.795 1.909 C 5.795 0.877 5.542 0 5.053 -0.71 C 4.581 -1.425 3.882 -1.981 2.992 -2.351 L 6.239 -7.157 L 1.896 -7.157 L -0.83 -2.999 L -2.503 -2.999 L -2.503 -7.157 L -6.253 -7.157 Z" style="fill: rgb(0, 0, 0); fill-opacity: 1;"/>
    </g>
  </g>
  <g style="clip-path: url(&quot;#clippath44&quot;);" transform="matrix(1, 0, 0, -1, 58.59772872924805, 1778.1898193359375)">
    <g transform="translate(145.2015 329.9912)">
      <path d="M 0 0 C 0 1.033 -0.327 1.921 -0.979 2.652 C -1.646 3.389 -2.49 3.744 -3.482 3.744 C -4.489 3.744 -5.321 3.404 -5.957 2.683 C -6.596 1.97 -6.921 1.101 -6.921 0.074 C -6.921 -0.966 -6.596 -1.854 -5.941 -2.584 C -5.305 -3.305 -4.474 -3.683 -3.452 -3.683 C -2.43 -3.683 -1.602 -3.311 -0.963 -2.6 C -0.327 -1.885 0 -1.025 0 0 M -10.774 0 C -10.774 2.006 -10.077 3.699 -8.669 5.097 C -7.261 6.494 -5.528 7.191 -3.452 7.191 C -1.362 7.191 0.371 6.507 1.749 5.141 C 3.14 3.76 3.838 2.088 3.838 0.074 C 3.838 -1.924 3.14 -3.625 1.734 -5.02 C 0.341 -6.416 -1.409 -7.105 -3.482 -7.105 C -5.57 -7.105 -7.306 -6.431 -8.683 -5.057 C -10.077 -3.683 -10.774 -1.996 -10.774 0" style="fill: rgb(0, 0, 0); fill-opacity: 1;"/>
    </g>
  </g>
  <g style="clip-path: url(&quot;#clippath44&quot;);" transform="matrix(1, 0, 0, -1, 58.59772872924805, 1778.1898193359375)">
    <g transform="translate(156.7586 330.0615)">
      <path d="M 0 0 C 0.654 0 1.187 0.168 1.571 0.496 C 1.973 0.824 2.164 1.27 2.164 1.805 C 2.164 3.035 1.423 3.652 -0.013 3.652 L -1.763 3.652 L -1.763 0 Z M -5.513 6.857 L 0.282 6.857 C 2.002 6.857 3.38 6.424 4.402 5.562 C 5.412 4.698 5.915 3.525 5.915 2.018 C 5.915 0.422 5.383 -0.811 4.313 -1.665 C 3.246 -2.535 1.839 -2.949 0.091 -2.949 L -1.763 -2.949 L -1.763 -6.916 L -5.513 -6.916 Z" style="fill: rgb(0, 0, 0); fill-opacity: 1;"/>
    </g>
  </g>
  <g transform="matrix(1, 0, 0, -1, 58.59772872924805, 1778.1898193359375)">
    <path d="M 165.237 336.917 L 169.029 336.917 L 169.029 323.146 L 165.237 323.146 Z" style="fill: rgb(0, 0, 0); fill-opacity: 1;"/>
  </g>
  <g transform="matrix(1, 0, 0, -1, 232.45353698730466, 1441.2708740234375)">
    <path d="M 0 0 L 10.894 0 L 10.894 -3.258 L 3.704 -3.258 L 3.704 -5.359 L 10.24 -5.359 L 10.24 -8.369 L 3.704 -8.369 L 3.704 -10.521 L 10.996 -10.521 L 10.996 -13.773 L 0 -13.773 Z" style="fill: rgb(0, 0, 0); fill-opacity: 1;"/>
  </g>
  <g transform="matrix(1, 0, 0, -1, 250.21083068847653, 1444.6243896484375)">
    <path d="M 0 0 L -4.045 0 L -4.045 3.354 L 7.853 3.354 L 7.853 0 L 3.75 0 L 3.75 -10.42 L 0 -10.42 Z" style="fill: rgb(0, 0, 0); fill-opacity: 1;"/>
  </g>
  <g transform="matrix(1, 0, 0, -1, 267.5213317871094, 1449.6400146484375)">
    <path d="M 0 0 L -1.511 3.918 L -3.041 0 Z M -3.293 8.47 L 0.326 8.47 L 6.088 -5.404 L 2.072 -5.404 L 1.081 -2.954 L -4.152 -2.954 L -5.113 -5.404 L -9.071 -5.404 Z" style="fill: rgb(0, 0, 0); fill-opacity: 1;"/>
  </g>
  <g style="clip-path: url(&quot;#clippath45&quot;);" transform="matrix(1, 0, 0, -1, 58.59772872924805, 1778.1898193359375)">
    <g transform="translate(217.4593 325.21)">
      <path d="M 0 0 L 2.089 2.523 C 3.452 1.425 4.902 0.875 6.487 0.875 C 7.528 0.875 8.031 1.187 8.031 1.818 C 8.031 2.131 7.883 2.391 7.586 2.578 C 7.276 2.762 6.475 3.01 5.155 3.312 C 3.837 3.608 2.754 4.057 1.896 4.648 C 1.066 5.229 0.635 6.18 0.635 7.495 C 0.635 8.801 1.111 9.878 2.057 10.695 C 3.007 11.52 4.294 11.926 5.897 11.926 C 7.052 11.926 8.075 11.779 8.979 11.475 C 9.882 11.18 10.713 10.723 11.469 10.102 L 9.585 7.412 C 8.326 8.317 7.052 8.762 5.794 8.762 C 5.362 8.762 5.039 8.682 4.801 8.512 C 4.547 8.349 4.432 8.133 4.432 7.885 C 4.432 7.561 4.592 7.301 4.902 7.115 C 5.23 6.922 6.045 6.686 7.349 6.387 C 8.67 6.091 9.749 5.629 10.58 5.002 C 11.423 4.375 11.838 3.443 11.838 2.234 C 11.838 0.816 11.349 -0.3 10.357 -1.085 C 9.364 -1.888 8.031 -2.287 6.356 -2.287 C 5.14 -2.287 3.984 -2.096 2.872 -1.709 C 1.775 -1.323 0.816 -0.758 0 0" style="fill: rgb(0, 0, 0); fill-opacity: 1;"/>
    </g>
  </g>
  <g style="clip-path: url(&quot;#clippath45&quot;);" transform="matrix(1, 0, 0, -1, 58.59772872924805, 1778.1898193359375)">
    <g transform="translate(206.4427 314.9541)">
      <path d="M 0 0 C 0.327 0 0.594 0.074 0.787 0.24 C 0.994 0.397 1.083 0.611 1.083 0.879 C 1.083 1.164 0.994 1.386 0.802 1.536 C 0.608 1.682 0.341 1.765 -0.014 1.765 L -1.364 1.765 L -1.364 0 Z M -2.284 2.607 L 0.06 2.607 C 0.386 2.607 0.683 2.559 0.935 2.475 C 1.187 2.385 1.439 2.213 1.677 1.98 C 1.899 1.746 2.033 1.402 2.033 0.941 C 2.033 0.52 1.914 0.167 1.692 -0.105 C 1.47 -0.371 1.157 -0.561 0.757 -0.668 L 2.195 -2.67 L 1.098 -2.67 L -0.207 -0.83 L -1.364 -0.83 L -1.364 -2.67 L -2.284 -2.67 Z" style="fill: rgb(147, 149, 152); fill-opacity: 1;"/>
    </g>
  </g>
  <g transform="matrix(1, 0, 0, -1, 177.16102600097653, 1460.6282958984375)">
    <path d="M 0 0 L 0 -3.668 L -2.818 0 L -3.679 0 L -3.679 -5.277 L -2.76 -5.277 L -2.76 -1.521 L 0.149 -5.277 L 0.92 -5.277 L 0.92 0 Z" style="fill: rgb(147, 149, 152); fill-opacity: 1;"/>
  </g>
  <g transform="matrix(1, 0, 0, -1, 188.21322631835935, 1463.1361083984375)">
    <path d="M 0 0 L -1.602 2.508 L -2.597 2.508 L -2.597 -2.77 L -1.677 -2.77 L -1.677 1.006 L -0.031 -1.484 L 0.014 -1.484 L 1.677 1.016 L 1.677 -2.77 L 2.61 -2.77 L 2.61 2.508 L 1.617 2.511 Z" style="fill: rgb(147, 149, 152); fill-opacity: 1;"/>
  </g>
  <g transform="matrix(1, 0, 0, -1, 58.59772872924805, 1778.1898193359375)">
    <path d="M 164.047 312.284 L 164.967 312.284 L 164.967 317.562 L 164.047 317.562 Z" style="fill: rgb(147, 149, 152); fill-opacity: 1;"/>
  </g>
  <g transform="matrix(1, 0, 0, -1, 231.17323303222653, 1460.6282958984375)">
    <path d="M 0 0 L 0 -5.277 L 3.709 -5.277 L 3.709 -4.432 L 0.92 -4.432 L 0.92 0 Z" style="fill: rgb(147, 149, 152); fill-opacity: 1;"/>
  </g>
  <g transform="matrix(1, 0, 0, -1, 58.59772872924805, 1778.1898193359375)">
    <path d="M 183.479 312.284 L 184.413 312.284 L 184.413 317.562 L 183.479 317.562 Z" style="fill: rgb(147, 149, 152); fill-opacity: 1;"/>
  </g>
  <g transform="matrix(1, 0, 0, -1, 252.89152526855466, 1461.6966552734375)">
    <path d="M 0 0 L 0.905 -2.111 L -0.905 -2.111 Z M -0.416 1.109 L -2.744 -4.209 L -1.795 -4.209 L -1.247 -2.938 L 1.246 -2.938 L 1.779 -4.213 L 2.76 -4.209 L 0.444 1.109 Z" style="fill: rgb(147, 149, 152); fill-opacity: 1;"/>
  </g>
  <g transform="matrix(1, 0, 0, -1, 58.59772872924805, 1778.1898193359375)">
    <path d="M 215.848 312.284 L 216.783 312.284 L 216.783 317.562 L 215.848 317.562 Z" style="fill: rgb(147, 149, 152); fill-opacity: 1;"/>
  </g>
  <g transform="matrix(1, 0, 0, -1, 285.2455139160156, 1461.6966552734375)">
    <path d="M 0 0 L 0.919 -2.111 L -0.89 -2.111 Z M -0.4 1.109 L -2.729 -4.209 L -1.78 -4.209 L -1.232 -2.938 L 1.26 -2.938 L 1.78 -4.213 L 2.774 -4.209 L 0.46 1.109 Z" style="fill: rgb(147, 149, 152); fill-opacity: 1;"/>
  </g>
  <g style="clip-path: url(&quot;#clippath46&quot;);" transform="matrix(1, 0, 0, -1, 58.59772872924805, 1778.1898193359375)">
    <g transform="translate(144.0784 314.9092)">
      <path d="M 0 0 C 0 0.525 -0.162 0.977 -0.519 1.342 C -0.859 1.706 -1.276 1.892 -1.794 1.892 C -2.314 1.892 -2.744 1.709 -3.07 1.347 C -3.412 0.994 -3.575 0.553 -3.575 0.034 C -3.575 -0.493 -3.412 -0.942 -3.07 -1.309 C -2.729 -1.679 -2.299 -1.861 -1.78 -1.861 C -1.261 -1.861 -0.845 -1.679 -0.504 -1.32 C -0.162 -0.961 0 -0.516 0 0 M -4.555 0 C -4.555 0.773 -4.287 1.414 -3.768 1.944 C -3.248 2.485 -2.582 2.744 -1.78 2.744 C -0.979 2.744 -0.326 2.485 0.192 1.959 C 0.712 1.431 0.979 0.793 0.979 0.034 C 0.979 -0.738 0.712 -1.379 0.192 -1.909 C -0.341 -2.447 -0.993 -2.713 -1.794 -2.713 C -2.582 -2.713 -3.248 -2.451 -3.768 -1.924 C -4.287 -1.399 -4.555 -0.761 -4.555 0" style="fill: rgb(147, 149, 152); fill-opacity: 1;"/>
    </g>
  </g>
  <g style="clip-path: url(&quot;#clippath46&quot;);" transform="matrix(1, 0, 0, -1, 58.59772872924805, 1778.1898193359375)">
    <g transform="translate(154.8187 313.1143)">
      <path d="M 0 0 C 0.312 0 0.564 0.06 0.742 0.182 C 0.92 0.299 1.009 0.486 1.009 0.717 C 1.009 0.95 0.92 1.133 0.742 1.258 C 0.564 1.38 0.296 1.438 -0.074 1.438 L -1.542 1.438 L -1.542 0 Z M -0.281 2.226 C 0.045 2.226 0.268 2.281 0.46 2.403 C 0.638 2.523 0.727 2.696 0.727 2.938 C 0.727 3.15 0.638 3.316 0.475 3.438 C 0.312 3.56 0.089 3.616 -0.208 3.616 L -1.542 3.616 L -1.542 2.226 Z M -2.447 4.447 L -0.089 4.447 C 0.207 4.447 0.475 4.408 0.713 4.324 C 0.95 4.246 1.158 4.109 1.351 3.92 C 1.558 3.727 1.647 3.456 1.647 3.109 C 1.647 2.803 1.572 2.566 1.44 2.377 C 1.306 2.189 1.127 2.034 0.891 1.914 C 1.231 1.796 1.483 1.643 1.662 1.438 C 1.854 1.242 1.943 0.972 1.943 0.631 C 1.943 0.16 1.765 -0.203 1.41 -0.457 C 1.068 -0.709 0.594 -0.83 -0.015 -0.83 L -2.447 -0.83 Z" style="fill: rgb(147, 149, 152); fill-opacity: 1;"/>
    </g>
  </g>
</svg>