<svg version="1.2" xmlns="http://www.w3.org/2000/svg" viewBox="0 0 202 83" width="202" height="83">
	<title>logo_propietas_01</title>
	<style>
		.s0 { fill: #2e3092 } 
		.s1 { fill: #27aae1 } 
	</style>
	<g>
		<path class="s0" d="m126.9 13.5l5.3 5.3-11.3 11.2h-10.6z"/>
	</g>
	<g>
		<path class="s0" d="m172.5 18.2l17.9-17.8h10.6l-23.1 23z"/>
	</g>
	<g>
		<path class="s1" d="m166.9 25.4l-13-12.9 5.2-5.3 13.2 13.1v0.1l4.3 4.3-5.2 5.2z"/>
	</g>
	<g>
		<path class="s0" d="m128.7 24.6l24.1-24 5.3 5.2-24.1 24.1z"/>
	</g>
	<g>
		<g>
			<path class="s0" d="m0.6 40.7h9.4q4.3 0 6.8 2.1 2.4 2.1 2.4 5.8c0 2.6-0.9 4.5-2.6 5.9q-2.6 2.1-6.9 2.1h-3v6.4h-6.1zm9 11.1q1.6 0 2.6-0.8c0.6-0.5 0.9-1.2 0.9-2.1q0-3-3.5-3h-2.9v5.9z"/>
		</g>
	</g>
	<g>
		<g>
			<path class="s0" d="m23.2 40.7h10.4q2.5 0 4.3 0.7 1.8 0.6 3.3 2.1 1.6 1.6 1.6 4.9 0 2.5-1.2 4.2c-0.8 1.1-1.9 2.1-3.4 2.7l5.3 7.7h-7.1l-4.4-6.7h-2.7v6.7h-6.1zm10.1 10.7q1.6 0 2.5-0.7 0.8-0.7 0.8-1.9 0-1.3-0.8-2-0.9-0.7-2.5-0.7h-4v5.3z"/>
		</g>
	</g>
	<g>
		<g>
			<path class="s0" d="m46.6 51.9q0-4.8 3.5-8.2 3.4-3.4 8.4-3.4 5.1 0 8.5 3.3 3.4 3.4 3.4 8.2 0 4.9-3.4 8.3-3.4 3.4-8.5 3.4-5.1 0-8.5-3.4-3.4-3.3-3.4-8.2zm17.6 0q0-2.5-1.6-4.2-1.7-1.8-4.1-1.8-2.5 0-4 1.7-1.6 1.7-1.6 4.2 0 2.6 1.6 4.3 1.6 1.8 4 1.8 2.5 0 4.1-1.7 1.6-1.8 1.6-4.3z"/>
		</g>
	</g>
	<g>
		<g>
			<path class="s0" d="m74 40.7h9.4q4.2 0 6.7 2.1 2.5 2.1 2.5 5.8 0 3.9-2.6 5.9-2.6 2.1-6.9 2.1h-3v6.4h-6.1zm9 11.1q1.6 0 2.5-0.8c0.7-0.5 1-1.2 1-2.1 0-2-1.2-3-3.5-3h-2.9v5.9z"/>
		</g>
	</g>
	<g>
		<path fill-rule="evenodd" class="s0" d="m102.9 40.7v22.3h-6.1v-22.3z"/>
	</g>
	<g>
		<path class="s0" d="m110.6 40.7h17.7v5.3h-11.7v3.4h10.7v4.9h-10.7v3.5h11.9v5.2h-17.9z"/>
	</g>
	<g>
		<path class="s0" d="m139.7 46.2h-6.6v-5.5h19.4v5.5h-6.7v16.8h-6.1z"/>
	</g>
	<g>
		<path class="s0" d="m162.5 40.6h5.9l9.4 22.4h-6.6l-1.6-3.9h-8.5l-1.6 3.9h-6.4zm5.4 13.7l-2.5-6.3-2.5 6.3z"/>
	</g>
	<g>
		<g>
			<path class="s0" d="m181.8 59.7l3.4-4.1c2.2 1.8 4.5 2.7 7.1 2.7q2.5 0 2.5-1.6 0-0.7-0.7-1.2-0.7-0.4-3.9-1.2-3.3-0.7-5.4-2.1-2-1.4-2-4.6 0-3.2 2.3-5.2 2.3-2 6.3-2 2.8 0 5 0.7 2.2 0.7 4 2.2l-3 4.4q-3.1-2.2-6.2-2.2-1.1 0-1.6 0.4-0.6 0.4-0.6 1 0 0.8 0.7 1.3 0.8 0.4 4 1.2 3.2 0.7 5.3 2.2 2 1.5 2 4.5 0 3.4-2.4 5.3-2.4 2-6.5 2-3 0-5.7-0.9-2.6-1-4.6-2.8z"/>
		</g>
	</g>
	<g>
		<path class="s1" d="m14.4 74.4h1.4l4.6 6v-6h1.5v8.6h-1.2l-4.8-6.1v6.1h-1.5z"/>
	</g>
	<g>
		<path class="s1" d="m34.2 74.4h1.6l2.6 4.1 2.6-4.1h1.6v8.6h-1.5v-6.2l-2.7 4.1h-0.1l-2.6-4v6.1h-1.5z"/>
	</g>
	<g>
		<g>
			<path class="s1" d="m54.5 78.7q0-1.8 1.3-3.1 1.2-1.3 3.2-1.3 2 0 3.2 1.3 1.3 1.2 1.3 3.1 0 1.8-1.3 3.1-1.3 1.3-3.2 1.3-1.9 0-3.2-1.3-1.3-1.2-1.3-3.1zm7.4 0q0-1.3-0.8-2.1-0.9-0.9-2.1-0.9-1.3 0-2.1 0.8-0.8 0.9-0.8 2.2 0 1.3 0.8 2.1 0.8 0.9 2.1 0.9 1.3 0 2.1-0.8 0.8-0.9 0.8-2.2z"/>
		</g>
	</g>
	<g>
		<g>
			<path class="s1" d="m75.4 74.4h3.8q0.7 0 1.3 0.2 0.6 0.2 1.1 0.7 0.4 0.5 0.4 1.3 0 0.7-0.3 1.2-0.3 0.4-0.9 0.7 0.8 0.3 1.3 0.8 0.4 0.5 0.4 1.3 0 1.2-0.8 1.8-0.9 0.6-2.4 0.6h-3.9zm3.5 3.6c0.5 0 0.9-0.1 1.2-0.3q0.4-0.3 0.4-0.9 0-0.5-0.4-0.8-0.4-0.3-1.1-0.3h-2.1v2.3zm0.4 3.6q0.8 0 1.2-0.3 0.5-0.3 0.5-0.9 0-0.5-0.5-0.8-0.4-0.3-1.3-0.3h-2.4v2.3z"/>
		</g>
	</g>
	<g>
		<path fill-rule="evenodd" class="s1" d="m95.9 74.4v8.6h-1.5v-8.6z"/>
	</g>
	<g>
		<path class="s1" d="m108.2 74.4h1.5v7.2h4.6v1.4h-6.1z"/>
	</g>
	<g>
		<path fill-rule="evenodd" class="s1" d="m127.5 74.4v8.6h-1.5v-8.6z"/>
	</g>
	<g>
		<path class="s1" d="m142.9 74.4h1.4l3.7 8.6h-1.6l-0.8-2.1h-4.1l-0.9 2.1h-1.5zm2.1 5.2l-1.5-3.4-1.4 3.4z"/>
	</g>
	<g>
		<g>
			<path class="s1" d="m159.6 74.4h3.8q0.8 0 1.4 0.2 0.6 0.3 1.2 0.8c0.4 0.4 0.6 1 0.6 1.7q0 1.1-0.6 1.7-0.5 0.7-1.5 0.9l2.4 3.3h-1.8l-2.2-3h-1.8v3h-1.5zm3.7 4.2q0.8 0 1.3-0.4 0.5-0.4 0.4-1 0.1-0.7-0.4-1.1-0.5-0.3-1.3-0.4h-2.2v2.9z"/>
		</g>
	</g>
	<g>
		<path fill-rule="evenodd" class="s1" d="m180.1 74.4v8.6h-1.5v-8.6z"/>
	</g>
	<g>
		<path class="s1" d="m195.5 74.4h1.4l3.7 8.6h-1.6l-0.8-2.1h-4.1l-0.9 2.1h-1.5zm2.1 5.2l-1.5-3.4-1.4 3.4z"/>
	</g>
	<g>
		<path fill-rule="evenodd" class="s1" d="m2.1 74.4v8.6h-1.5v-8.6z"/>
	</g>
</svg>