<?xml version="1.0" encoding="utf-8"?>
<svg xmlns="http://www.w3.org/2000/svg" viewBox="228.3692 2362.3683 123.3388 49.339" width="123.339px" height="49.339px">
  <path d="M 0 0 L 3.235 -3.252 L -3.678 -10.26 L -10.147 -10.271 Z" style="fill: rgb(255, 255, 255); fill-opacity: 1;" transform="matrix(1, 0, 0, -1, 306.2948455810547, 2370.526641845703)"/>
  <path d="M 0 0 L 10.942 11.045 L 17.44 11.038 L 3.248 -3.275 Z" style="fill: rgb(255, 255, 255); fill-opacity: 1;" transform="matrix(1, 0, 0, -1, 334.26805114746094, 2373.413330078125)"/>
  <path d="M 0 0 L -0.015 -0.015 L -7.991 8.014 L -4.785 11.255 L 3.277 3.146 L 3.324 3.072 L 5.937 0.418 L 2.762 -2.799 Z" style="fill: rgb(39, 170, 225); fill-opacity: 1;" transform="matrix(1, 0, 0, -1, 330.8109588623047, 2377.884033203125)"/>
  <path d="M 0 0 L 14.771 14.938 L 18.004 11.676 L 3.221 -3.256 Z" style="fill: rgb(255, 255, 255); fill-opacity: 1;" transform="matrix(1, 0, 0, -1, 307.4164581298828, 2377.434844970703)"/>
  <path d="M 0 0 C 0.651 0 1.185 0.17 1.569 0.498 C 1.955 0.826 2.149 1.273 2.149 1.807 C 2.149 3.039 1.421 3.654 -0.03 3.654 L -1.763 3.654 L -1.763 0 Z M -5.556 6.859 L 0.266 6.859 C 2.002 6.859 3.38 6.427 4.387 5.566 C 5.395 4.701 5.914 3.527 5.914 2.021 C 5.914 0.424 5.365 -0.809 4.312 -1.661 C 3.245 -2.531 1.822 -2.945 0.073 -2.945 L -1.763 -2.945 L -1.763 -6.912 L -5.556 -6.912 Z" style="fill: rgb(255, 255, 255); fill-opacity: 1;" transform="matrix(1, 0, 0, -1, 233.9252471923828, 2393.846954345703)"/>
  <path d="M 0 0 C 0.654 0 1.143 0.151 1.498 0.433 C 1.839 0.723 2.017 1.129 2.017 1.636 C 2.017 2.186 1.839 2.602 1.482 2.884 C 1.129 3.164 0.624 3.313 -0.014 3.313 L -2.502 3.313 L -2.502 0 Z M -6.253 6.614 L 0.162 6.614 C 1.171 6.614 2.046 6.485 2.801 6.224 C 3.53 5.972 4.208 5.526 4.847 4.882 C 5.485 4.251 5.794 3.263 5.794 1.909 C 5.794 0.875 5.542 0 5.054 -0.713 C 4.581 -1.426 3.883 -1.981 2.992 -2.352 L 6.238 -7.157 L 1.897 -7.157 L -0.829 -3 L -2.502 -3 L -2.502 -7.157 L -6.253 -7.157 Z" style="fill: rgb(255, 255, 255); fill-opacity: 1;" transform="matrix(1, 0, 0, -1, 248.5062713623047, 2393.601837158203)"/>
  <path d="M 0 0 C 0 1.032 -0.326 1.921 -0.979 2.651 C -1.646 3.389 -2.49 3.744 -3.482 3.744 C -4.489 3.744 -5.321 3.402 -5.956 2.681 C -6.596 1.969 -6.921 1.1 -6.921 0.072 C -6.921 -0.968 -6.596 -1.855 -5.942 -2.586 C -5.305 -3.305 -4.474 -3.684 -3.452 -3.684 C -2.43 -3.684 -1.602 -3.311 -0.963 -2.6 C -0.326 -1.886 0 -1.025 0 0 M -10.774 0 C -10.774 2.006 -10.077 3.699 -8.668 5.096 C -7.261 6.493 -5.528 7.189 -3.452 7.189 C -1.362 7.189 0.371 6.506 1.749 5.139 C 3.139 3.759 3.838 2.088 3.838 0.072 C 3.838 -1.924 3.139 -3.625 1.734 -5.021 C 0.342 -6.417 -1.409 -7.107 -3.482 -7.107 C -5.57 -7.107 -7.305 -6.433 -8.684 -5.058 C -10.077 -3.684 -10.774 -1.998 -10.774 0" style="fill: rgb(255, 255, 255); fill-opacity: 1;" transform="matrix(1, 0, 0, -1, 267.4457550048828, 2393.913330078125)"/>
  <path d="M 0 0 C 0.653 0 1.187 0.17 1.57 0.498 C 1.972 0.826 2.162 1.273 2.162 1.807 C 2.162 3.039 1.422 3.654 -0.013 3.654 L -1.764 3.654 L -1.764 0 Z M -5.513 6.859 L 0.282 6.859 C 2.002 6.859 3.38 6.427 4.401 5.566 C 5.411 4.701 5.914 3.527 5.914 2.021 C 5.914 0.424 5.382 -0.809 4.313 -1.661 C 3.246 -2.531 1.839 -2.945 0.09 -2.945 L -1.764 -2.945 L -1.764 -6.912 L -5.513 -6.912 Z" style="fill: rgb(255, 255, 255); fill-opacity: 1;" transform="matrix(1, 0, 0, -1, 279.0033721923828, 2393.846954345703)"/>
  <path d="M 334.666 444.45 L 338.457 444.45 L 338.457 430.677 L 334.666 430.677 Z" style="fill: rgb(255, 255, 255); fill-opacity: 1;" transform="matrix(1, 0, 0, -1, -47.18544006347658, 2831.437744140625)"/>
  <path d="M 0 0 L 10.894 0 L 10.894 -3.258 L 3.703 -3.258 L 3.703 -5.357 L 10.24 -5.357 L 10.24 -8.368 L 3.703 -8.368 L 3.703 -10.52 L 10.996 -10.52 L 10.996 -13.771 L 0 -13.771 Z" style="fill: rgb(255, 255, 255); fill-opacity: 1;" transform="matrix(1, 0, 0, -1, 296.1000518798828, 2386.987548828125)"/>
  <path d="M 0 0 L -4.044 0 L -4.044 3.352 L 7.854 3.352 L 7.854 0 L 3.751 0 L 3.751 -10.42 L 0 -10.42 Z" style="fill: rgb(255, 255, 255); fill-opacity: 1;" transform="matrix(1, 0, 0, -1, 313.8568572998047, 2390.339141845703)"/>
  <path d="M 0 0 L -1.512 3.916 L -3.041 0 Z M -3.293 8.468 L 0.325 8.468 L 6.088 -5.404 L 2.071 -5.404 L 1.081 -2.953 L -4.153 -2.953 L -5.114 -5.404 L -9.072 -5.404 Z" style="fill: rgb(255, 255, 255); fill-opacity: 1;" transform="matrix(1, 0, 0, -1, 331.16835021972656, 2395.354736328125)"/>
  <path d="M 0 0 L 2.088 2.525 C 3.451 1.426 4.902 0.875 6.486 0.875 C 7.527 0.875 8.03 1.189 8.03 1.82 C 8.03 2.131 7.882 2.393 7.586 2.578 C 7.275 2.763 6.474 3.01 5.154 3.313 C 3.836 3.607 2.754 4.056 1.896 4.65 C 1.066 5.229 0.634 6.181 0.634 7.496 C 0.634 8.802 1.11 9.879 2.055 10.696 C 3.006 11.521 4.294 11.927 5.897 11.927 C 7.051 11.927 8.075 11.782 8.979 11.476 C 9.881 11.18 10.712 10.725 11.468 10.102 L 9.585 7.413 C 8.326 8.318 7.051 8.764 5.794 8.764 C 5.361 8.764 5.038 8.684 4.8 8.512 C 4.547 8.35 4.431 8.135 4.431 7.887 C 4.431 7.562 4.591 7.301 4.902 7.115 C 5.23 6.924 6.044 6.686 7.349 6.389 C 8.67 6.092 9.749 5.631 10.58 5.002 C 11.423 4.377 11.837 3.445 11.837 2.234 C 11.837 0.817 11.348 -0.298 10.357 -1.086 C 9.363 -1.886 8.03 -2.286 6.354 -2.286 C 5.14 -2.286 3.984 -2.094 2.871 -1.708 C 1.774 -1.323 0.815 -0.755 0 0" style="fill: rgb(255, 255, 255); fill-opacity: 1;" transform="matrix(1, 0, 0, -1, 339.7040557861328, 2398.696533203125)"/>
  <path d="M 0 0 C 0.326 0 0.593 0.074 0.786 0.243 C 0.994 0.397 1.083 0.613 1.083 0.879 C 1.083 1.164 0.994 1.387 0.8 1.537 C 0.608 1.684 0.341 1.766 -0.015 1.766 L -1.365 1.766 L -1.365 0 Z M -2.285 2.607 L 0.059 2.607 C 0.386 2.607 0.682 2.56 0.935 2.474 C 1.187 2.385 1.439 2.214 1.676 1.98 C 1.899 1.748 2.032 1.401 2.032 0.943 C 2.032 0.52 1.913 0.168 1.692 -0.104 C 1.468 -0.369 1.157 -0.561 0.756 -0.668 L 2.195 -2.67 L 1.097 -2.67 L -0.207 -0.83 L -1.365 -0.83 L -1.365 -2.67 L -2.285 -2.67 Z" style="fill: rgb(255, 255, 255); fill-opacity: 1;" transform="matrix(1, 0, 0, -1, 328.6874542236328, 2408.9523315429688)"/>
  <path d="M 0 0 L 0 -3.668 L -2.819 0 L -3.679 0 L -3.679 -5.277 L -2.759 -5.277 L -2.759 -1.521 L 0.149 -5.277 L 0.92 -5.277 L 0.92 0 Z" style="fill: rgb(255, 255, 255); fill-opacity: 1;" transform="matrix(1, 0, 0, -1, 240.8075714111328, 2406.344940185547)"/>
  <path d="M 0 0 L -1.602 2.508 L -2.596 2.508 L -2.596 -2.77 L -1.676 -2.77 L -1.676 1.006 L -0.03 -1.482 L 0.015 -1.482 L 1.676 1.018 L 1.676 -2.77 L 2.611 -2.77 L 2.611 2.508 L 1.618 2.513 Z" style="fill: rgb(255, 255, 255); fill-opacity: 1;" transform="matrix(1, 0, 0, -1, 251.85926818847656, 2408.852752685547)"/>
  <path d="M 333.476 419.816 L 334.396 419.816 L 334.396 425.093 L 333.476 425.093 Z" style="fill: rgb(255, 255, 255); fill-opacity: 1;" transform="matrix(1, 0, 0, -1, -47.18544006347658, 2831.437744140625)"/>
  <path d="M 0 0 L 0 -5.277 L 3.709 -5.277 L 3.709 -4.432 L 0.92 -4.432 L 0.92 0 Z" style="fill: rgb(255, 255, 255); fill-opacity: 1;" transform="matrix(1, 0, 0, -1, 294.8192596435547, 2406.344940185547)"/>
  <path d="M 352.909 419.816 L 353.843 419.816 L 353.843 425.093 L 352.909 425.093 Z" style="fill: rgb(255, 255, 255); fill-opacity: 1;" transform="matrix(1, 0, 0, -1, -47.18544006347658, 2831.437744140625)"/>
  <path d="M 0 0 L 0.906 -2.109 L -0.905 -2.109 Z M -0.415 1.109 L -2.744 -4.209 L -1.795 -4.209 L -1.246 -2.937 L 1.247 -2.937 L 1.779 -4.213 L 2.759 -4.209 L 0.445 1.109 Z" style="fill: rgb(255, 255, 255); fill-opacity: 1;" transform="matrix(1, 0, 0, -1, 316.5375518798828, 2407.413330078125)"/>
  <path d="M 385.277 419.816 L 386.212 419.816 L 386.212 425.093 L 385.277 425.093 Z" style="fill: rgb(255, 255, 255); fill-opacity: 1;" transform="matrix(1, 0, 0, -1, -47.18544006347658, 2831.437744140625)"/>
  <path d="M 0 0 L 0.919 -2.109 L -0.891 -2.109 Z M -0.401 1.109 L -2.73 -4.209 L -1.78 -4.209 L -1.233 -2.937 L 1.26 -2.937 L 1.779 -4.213 L 2.773 -4.209 L 0.459 1.109 Z" style="fill: rgb(255, 255, 255); fill-opacity: 1;" transform="matrix(1, 0, 0, -1, 348.89256286621094, 2407.413330078125)"/>
  <path d="M 275.784 419.816 L 276.718 419.816 L 276.718 425.093 L 275.784 425.093 Z" style="fill: rgb(255, 255, 255); fill-opacity: 1;" transform="matrix(1, 0, 0, -1, -47.18544006347658, 2831.437744140625)"/>
  <path d="M 0 0 C 0 0.526 -0.163 0.977 -0.519 1.343 C -0.859 1.705 -1.275 1.892 -1.794 1.892 C -2.314 1.892 -2.744 1.71 -3.07 1.347 C -3.412 0.994 -3.575 0.553 -3.575 0.034 C -3.575 -0.491 -3.412 -0.942 -3.07 -1.31 C -2.729 -1.679 -2.299 -1.86 -1.779 -1.86 C -1.26 -1.86 -0.845 -1.679 -0.504 -1.321 C -0.163 -0.96 0 -0.517 0 0 M -4.553 0 C -4.553 0.772 -4.287 1.413 -3.768 1.943 C -3.248 2.485 -2.581 2.743 -1.779 2.743 C -0.979 2.743 -0.326 2.485 0.193 1.959 C 0.713 1.431 0.979 0.794 0.979 0.034 C 0.979 -0.738 0.713 -1.38 0.193 -1.91 C -0.341 -2.448 -0.994 -2.711 -1.794 -2.711 C -2.581 -2.711 -3.248 -2.45 -3.768 -1.925 C -4.287 -1.398 -4.553 -0.76 -4.553 0" style="fill: rgb(255, 255, 255); fill-opacity: 1;" transform="matrix(1, 0, 0, -1, 266.32225036621094, 2408.996337890625)"/>
  <path d="M 0 0 C 0.312 0 0.564 0.058 0.741 0.183 C 0.92 0.298 1.009 0.485 1.009 0.716 C 1.009 0.949 0.92 1.131 0.741 1.257 C 0.564 1.379 0.296 1.438 -0.074 1.438 L -1.542 1.438 L -1.542 0 Z M -0.282 2.226 C 0.045 2.226 0.268 2.282 0.46 2.402 C 0.638 2.522 0.727 2.696 0.727 2.938 C 0.727 3.149 0.638 3.315 0.475 3.438 C 0.312 3.561 0.089 3.616 -0.207 3.616 L -1.542 3.616 L -1.542 2.226 Z M -2.447 4.446 L -0.089 4.446 C 0.208 4.446 0.475 4.407 0.712 4.323 C 0.949 4.247 1.157 4.109 1.351 3.921 C 1.558 3.728 1.647 3.456 1.647 3.108 C 1.647 2.804 1.572 2.567 1.439 2.378 C 1.306 2.188 1.127 2.035 0.89 1.913 C 1.231 1.796 1.483 1.644 1.662 1.438 C 1.854 1.242 1.944 0.972 1.944 0.63 C 1.944 0.159 1.765 -0.202 1.409 -0.456 C 1.069 -0.708 0.594 -0.831 -0.015 -0.831 L -2.447 -0.831 Z" style="fill: rgb(255, 255, 255); fill-opacity: 1;" transform="matrix(1, 0, 0, -1, 277.06297302246094, 2410.791229248047)"/>
</svg>