<svg version="1.2" xmlns="http://www.w3.org/2000/svg" viewBox="0 0 52 70" width="52" height="70">
	<title>rentia-completo</title>
	<style>
		.s0 { fill: #ffffff } 
		.s1 { fill: #2e3192 } 
		.s2 { fill: #29aae2 } 
	</style>
	<g id="Fondo oscuro">
		<path id="Rentia" class="s0" aria-label="Rentia"  d="m72.1 52h6v-12.2h7.5l8.3 12.2h7.1l-9.2-13.3c4.7-1.4 8.1-4.9 8.1-10.6v-0.1c0-3.1-1-5.7-2.8-7.6-2.2-2.2-5.6-3.5-9.8-3.5h-15.2zm6-17.8v-11.8h8.7c4.4 0 7 2.1 7 5.9v0.1c0 3.5-2.7 5.8-7 5.8zm39.7 18.4c4.8 0 8.1-2 10.5-5l-3.4-3.2c-2.1 2.1-4.1 3.2-7 3.2-3.7 0-6.7-2.4-7.3-6.7h18.8c0.1-0.6 0.1-1.2 0.1-1.7 0-7.7-4.1-14.3-12.3-14.3-7.3 0-12.5 6.2-12.5 13.8v0.1c0 8.2 5.7 13.8 13.1 13.8zm-7.3-15.7c0.5-4.2 3.1-7 6.7-7 3.9 0 6.1 3 6.5 7zm24.9 15.1h5.9v-15c0-4.1 2.3-6.6 5.7-6.6 3.5 0 5.5 2.4 5.5 6.5v15.1h5.9v-16.9c0-6.2-3.3-10.2-9.1-10.2-4 0-6.4 2.2-8 4.7v-4.1h-5.9zm38.7 0.4c2.2 0 3.8-0.5 5.3-1.3v-5c-1.2 0.6-2.3 0.9-3.7 0.9-1.9 0-3.1-1-3.1-3.3v-13h6.9v-5.2h-6.9v-7.3h-5.9v7.3h-3.2v5.2h3.2v13.9c0 5.9 3.1 7.8 7.4 7.8zm11.4-31h6.3v-5.8h-6.3zm0.2 30.6h5.9v-26.5h-5.9zm35.1 0v-15.7c0-7.1-3.7-11.2-11.3-11.2-4.1 0-6.9 0.9-9.7 2.2l1.6 4.9c2.3-1 4.5-1.7 7.3-1.7 4.1 0 6.3 2 6.3 5.7v0.5c-2-0.7-4-1.1-7.1-1.1-5.9 0-10.4 2.8-10.4 8.7v0.1c0 5.3 4.3 8.1 9.2 8.1 3.9 0 6.5-1.6 8.3-3.8v3.3zm-5.7-9.6c0 3.3-2.9 5.6-6.8 5.6-2.8 0-5-1.4-5-3.9v-0.1c0-2.6 2.2-4.2 5.9-4.2 2.3 0 4.4 0.5 5.9 1.1z"/>
		<path id="Forma 4" class="s1" d="m21 69v-35l8 5v-8l-4-3-25 16v12z"/>
		<path id="Forma 3" class="s2" d="m52 30.5v23.5l-26.7 16-0.3-29 4.9 3.9z"/>
		<path id="Forma 2" class="s2" d="m38 0l0.1 33 12.9-8v-18"/>
		<path id="Forma 1" class="s1" d="m0 17l24-15 9 6v19l-8-5-25 15z"/>
	</g>
</svg>